<?xml version="1.0" standalone="no"?>
<!DOCTYPE svg PUBLIC "-//W3C//DTD SVG 20010904//EN"
 "http://www.w3.org/TR/2001/REC-SVG-20010904/DTD/svg10.dtd">
<svg version="1.0" xmlns="http://www.w3.org/2000/svg"
 width="1024.000000pt" height="1024.000000pt" viewBox="0 0 1024.000000 1024.000000"
 preserveAspectRatio="xMidYMid meet">

<g transform="translate(0.000000,1024.000000) scale(0.100000,-0.100000)"
fill="#000000" stroke="none">
<path d="M4345 8896 c-195 -49 -323 -122 -470 -270 -79 -80 -215 -261 -215
-287 0 -5 -56 -9 -127 -8 -165 0 -264 -15 -381 -56 -296 -106 -531 -361 -614
-665 -30 -112 -33 -361 -5 -454 10 -32 17 -59 15 -61 -2 -1 -23 -13 -48 -25
-120 -61 -245 -176 -327 -303 -94 -144 -132 -261 -140 -427 -9 -203 47 -387
165 -542 l51 -67 -22 -73 c-18 -60 -22 -98 -22 -218 0 -127 3 -154 24 -215 95
-280 301 -475 586 -556 44 -12 81 -23 82 -23 1 -1 -9 -39 -23 -85 -42 -147
-25 -311 47 -439 l29 -52 -23 -48 c-13 -26 -41 -91 -62 -146 -21 -54 -47 -109
-59 -122 -12 -12 -91 -64 -176 -115 -85 -51 -229 -137 -320 -192 -91 -55 -207
-125 -257 -156 -203 -123 -308 -196 -326 -228 -23 -40 -16 -81 20 -117 42 -42
82 -35 198 34 55 33 108 60 118 60 9 0 83 -29 162 -65 80 -36 147 -65 149 -65
2 0 48 -21 102 -46 l98 -45 -34 -21 c-95 -57 -131 -86 -146 -116 -34 -72 10
-142 88 -142 32 0 63 14 152 69 180 111 567 346 761 461 99 59 292 175 429
258 138 84 259 152 270 152 35 1 102 36 148 78 59 54 149 110 212 132 79 27
116 48 172 99 52 47 160 106 247 136 58 21 97 52 148 121 l39 53 42 -22 c65
-33 135 -107 148 -156 6 -25 10 -111 8 -219 -2 -144 0 -189 15 -240 28 -102
76 -189 150 -269 55 -58 85 -81 150 -113 114 -55 207 -69 316 -48 222 44 380
188 451 413 21 65 22 87 21 299 -2 217 -1 228 16 223 10 -4 59 -21 108 -38 78
-28 106 -33 215 -37 264 -9 487 78 650 254 119 128 183 265 210 452 l14 92 55
31 c191 107 334 296 390 517 30 117 29 288 -3 403 l-23 86 33 44 c100 129 156
269 174 431 29 255 -60 495 -255 694 -87 88 -152 137 -243 183 -40 20 -43 25
-37 49 4 15 13 61 21 102 76 422 -189 863 -628 1041 -111 46 -205 61 -374 60
l-150 -1 -18 38 c-53 110 -176 249 -308 348 -185 138 -378 204 -592 204 -160
0 -295 -42 -487 -150 l-37 -21 -46 31 c-60 41 -158 85 -248 111 -112 33 -332
35 -453 5z m225 2 c0 -5 21 -8 48 -8 26 -1 74 -8 107 -17 33 -8 72 -16 87 -17
14 0 24 -5 20 -10 -3 -5 2 -7 11 -3 9 3 17 3 19 -1 2 -4 35 -21 73 -37 39 -16
78 -37 89 -46 30 -29 75 -44 89 -30 6 6 19 11 29 11 10 0 23 9 30 20 14 21 34
28 22 8 -8 -14 45 29 58 47 5 6 8 4 8 -5 1 -12 3 -11 11 3 5 9 21 17 35 17 14
0 34 5 45 11 11 6 39 12 61 15 23 2 51 10 63 18 35 23 305 13 370 -14 63 -26
87 -32 106 -27 12 3 18 3 15 0 -9 -9 21 -32 68 -52 32 -14 46 -16 49 -8 2 7 9
2 16 -11 12 -23 90 -78 104 -74 5 1 6 -1 4 -5 -3 -5 23 -33 57 -63 122 -109
189 -196 260 -340 61 -121 70 -162 74 -324 3 -99 0 -152 -7 -159 -6 -6 -11
-19 -11 -29 0 -10 -4 -18 -10 -18 -5 0 -10 -5 -10 -11 0 -26 -45 -48 -101 -49
-99 0 -129 51 -129 217 0 137 -43 306 -90 353 -11 11 -15 20 -10 20 18 0 -11
44 -66 102 -50 52 -137 128 -148 128 -3 0 -16 11 -30 23 -14 13 -31 24 -39 24
-7 0 -47 17 -88 38 -69 35 -81 38 -184 43 -92 4 -123 1 -190 -17 -77 -21 -149
-47 -170 -63 -5 -5 -38 -28 -72 -53 -34 -24 -66 -53 -72 -63 -6 -11 -26 -27
-45 -36 -32 -15 -39 -15 -63 -2 -16 8 -39 26 -53 41 -36 39 -118 98 -165 119
-22 9 -48 22 -59 27 -50 28 -110 42 -201 46 -92 4 -108 2 -195 -27 -97 -33
-220 -88 -220 -101 0 -3 -12 -12 -27 -19 -23 -10 -63 -51 -159 -163 -5 -6 -24
-39 -41 -72 -45 -89 -74 -213 -79 -340 -7 -143 -9 -152 -49 -190 -42 -42 -64
-49 -112 -36 -52 15 -57 19 -76 71 -19 52 -24 268 -8 334 5 22 8 43 5 48 -3 4
1 22 9 40 8 18 20 54 27 81 7 26 16 47 20 47 4 0 13 15 21 33 7 17 21 43 31
57 37 49 83 115 83 120 1 13 197 200 209 200 8 0 23 10 33 23 10 12 25 22 33
22 8 0 14 6 12 13 -1 8 2 11 8 7 5 -3 13 1 16 10 4 9 13 14 20 11 8 -3 14 -1
14 4 0 5 7 6 17 3 11 -4 14 -3 9 5 -4 8 0 12 11 12 10 0 31 7 46 15 15 8 25
10 22 5 -3 -5 7 -3 22 5 15 8 49 18 75 21 26 4 46 9 44 13 -2 3 13 6 35 5 21
0 43 2 49 6 14 9 80 7 80 -2z m132 -329 c122 -31 191 -70 290 -165 84 -80 127
-78 218 11 235 230 579 230 849 0 74 -63 125 -127 170 -215 55 -105 62 -135
69 -306 7 -145 8 -152 35 -187 71 -93 190 -90 261 6 18 25 21 45 24 153 l4
124 97 0 c131 0 189 -12 290 -61 68 -33 101 -58 171 -128 94 -94 147 -185 171
-293 18 -84 8 -240 -20 -305 l-23 -51 -81 -4 c-143 -6 -217 -62 -221 -167 -1
-37 5 -57 26 -89 46 -69 68 -76 273 -82 l180 -5 78 -37 c87 -42 186 -129 238
-210 94 -146 96 -367 5 -522 l-27 -46 -55 45 c-30 25 -67 51 -82 59 -76 39
-159 27 -221 -32 -92 -88 -67 -208 58 -279 164 -94 231 -196 231 -354 0 -131
-71 -281 -169 -355 -209 -160 -503 -158 -670 5 -48 47 -101 134 -101 168 0 44
-35 137 -64 168 -91 96 -246 50 -274 -82 -29 -132 67 -351 217 -498 133 -131
354 -225 527 -225 l47 0 -6 -35 c-17 -103 -108 -220 -219 -283 -87 -49 -153
-66 -253 -66 -140 0 -227 32 -357 131 -119 90 -209 105 -285 47 -60 -46 -61
-52 -65 -469 -4 -328 -7 -386 -22 -425 -32 -86 -118 -149 -202 -150 -58 0
-142 45 -177 96 -41 59 -46 96 -47 322 0 176 -3 210 -20 259 -51 146 -186 265
-383 338 -38 14 -45 21 -35 30 7 6 85 54 173 107 631 375 760 453 776 469 18
18 19 47 19 618 0 487 -3 614 -15 684 -61 348 -359 680 -711 790 -118 37 -154
42 -319 42 -175 0 -241 -14 -381 -80 -308 -144 -523 -409 -594 -733 -26 -118
-28 -363 -3 -383 12 -11 60 -14 202 -15 167 0 193 -2 251 -23 87 -30 181 -81
258 -138 l62 -46 0 -211 -1 -211 -21 30 c-36 51 -132 138 -190 173 -110 66
-81 73 -372 -92 -142 -81 -260 -145 -262 -143 -2 2 3 25 12 51 49 143 -35 271
-214 327 -85 26 -266 28 -339 3 -143 -49 -223 -134 -223 -239 0 -54 31 -207
66 -324 14 -45 24 -84 22 -86 -11 -10 -203 -23 -275 -19 -114 7 -160 17 -241
56 -37 18 -72 32 -79 31 -7 0 -11 2 -10 6 1 3 -28 34 -65 69 -91 87 -139 182
-146 287 -10 162 50 272 197 358 102 61 135 105 135 182 1 45 -4 59 -30 92
-87 107 -202 103 -329 -11 -32 -29 -44 -45 -34 -46 9 0 22 6 28 14 23 27 129
85 167 92 30 4 52 0 86 -16 55 -25 75 -53 82 -109 4 -36 1 -46 -26 -76 -17
-20 -60 -55 -97 -80 -125 -84 -190 -173 -212 -290 -17 -91 8 -261 33 -223 5 8
8 1 8 -19 0 -43 9 -63 29 -63 20 0 44 -36 35 -52 -5 -7 -3 -8 6 -3 9 5 11 2 6
-11 -5 -20 24 -64 42 -64 6 0 12 -3 14 -7 8 -20 72 -63 85 -59 8 3 12 2 9 -2
-4 -7 55 -43 67 -41 1 0 29 -12 62 -28 48 -22 80 -29 155 -33 l95 -5 -49 -29
c-62 -36 -120 -88 -147 -132 -33 -55 -44 -56 -150 -20 -113 39 -128 47 -196
97 -29 22 -56 39 -60 39 -14 0 -143 125 -143 138 0 7 -4 10 -10 7 -5 -3 -10 0
-10 9 0 8 -4 16 -9 18 -10 4 -92 147 -96 168 -2 8 -10 42 -19 75 -24 94 -23
258 2 325 11 30 24 76 27 102 8 52 -5 80 -71 159 -28 34 -103 176 -133 254
-22 55 -25 87 -20 179 11 168 12 181 21 192 5 7 11 21 13 32 4 21 52 135 78
184 8 15 17 25 21 21 4 -4 4 -1 1 8 -3 9 10 31 35 57 25 25 38 47 34 55 -4 6
-3 9 1 4 10 -8 57 32 50 43 -3 4 12 20 33 36 20 15 44 34 52 41 20 18 117 78
157 97 30 14 32 17 26 53 -3 21 -9 45 -14 54 -14 27 -31 194 -26 256 6 73 24
165 44 217 53 143 110 247 163 304 27 28 48 52 45 52 -6 0 67 70 74 70 3 1 22
15 41 32 19 17 27 28 17 24 -11 -3 -16 -2 -12 4 3 6 12 10 18 10 7 0 18 9 25
20 7 12 18 17 28 13 9 -3 19 -2 23 3 11 16 55 49 47 37 -4 -7 -2 -13 3 -13 6
0 11 6 11 14 0 15 30 26 73 26 15 0 30 6 33 13 2 8 19 14 37 14 18 0 55 6 82
12 92 21 325 35 340 20 3 -4 0 -24 -8 -45 -15 -42 -41 -127 -56 -184 -5 -19
-10 -27 -10 -17 -1 16 -3 17 -16 4 -8 -9 -23 -13 -33 -11 -36 10 -210 -15
-258 -36 -123 -55 -156 -76 -228 -142 -109 -100 -177 -219 -203 -350 -3 -16
-8 -28 -12 -28 -7 0 -5 -174 3 -234 4 -35 43 -143 54 -150 4 -2 32 -1 62 3 61
7 116 -7 158 -40 17 -13 28 -16 32 -9 4 6 8 -12 9 -40 2 -61 -25 -118 -66
-141 -21 -12 -65 -18 -168 -22 -140 -6 -179 -11 -202 -30 -7 -5 -13 -7 -13 -4
0 9 -65 -20 -107 -49 -88 -60 -216 -225 -197 -255 4 -7 3 -9 -4 -5 -14 8 -28
-39 -42 -145 -10 -71 -9 -99 4 -167 18 -97 25 -110 77 -164 l39 -40 -37 78
c-70 152 -67 309 9 463 43 89 144 188 234 232 68 32 72 33 239 38 159 6 172 8
204 30 79 57 93 179 28 249 -39 43 -77 55 -159 55 l-77 -1 -14 37 c-27 66 -40
159 -35 244 15 235 199 467 434 546 69 23 203 37 258 27 l36 -7 0 -110 c0 -90
4 -117 20 -149 41 -81 141 -113 218 -70 65 37 82 79 82 206 0 225 75 404 229
547 168 155 372 210 583 156z m2223 -293 c28 -8 64 -19 82 -24 17 -6 34 -8 37
-5 3 3 20 -4 39 -16 19 -11 41 -21 48 -21 8 0 22 -8 30 -17 20 -23 50 -43 83
-57 14 -6 75 -58 136 -115 121 -114 163 -175 220 -318 18 -46 36 -83 40 -83 4
0 6 -12 4 -27 -1 -15 3 -31 9 -35 20 -13 15 -279 -6 -358 -10 -36 -17 -80 -15
-98 3 -31 8 -36 73 -63 39 -17 86 -47 109 -69 22 -22 48 -42 58 -46 10 -3 18
-12 18 -20 0 -8 5 -14 12 -14 15 0 97 -88 108 -117 5 -13 16 -23 24 -23 9 0
20 -16 26 -40 6 -22 15 -40 21 -40 6 0 7 -4 4 -10 -3 -5 -3 -10 2 -10 19 0 64
-106 81 -190 19 -96 -4 -301 -48 -430 -18 -55 -73 -159 -102 -195 -5 -5 -20
-23 -33 -40 -28 -33 -30 -47 -14 -77 6 -11 12 -35 14 -52 2 -17 8 -49 14 -71
22 -77 13 -263 -17 -375 -13 -47 -76 -176 -107 -220 -71 -98 -183 -198 -275
-245 -47 -24 -64 -43 -66 -74 -9 -111 -16 -167 -25 -177 -5 -6 -18 -38 -29
-70 -61 -176 -236 -360 -424 -444 -85 -38 -182 -55 -316 -54 -122 1 -165 10
-308 63 -45 16 -89 28 -96 25 -10 -4 -13 -19 -11 -52 2 -26 4 -137 5 -247 1
-179 -1 -207 -20 -265 -41 -124 -152 -264 -253 -317 -23 -12 -46 -26 -52 -30
-24 -19 -86 -42 -100 -37 -8 4 -15 1 -15 -4 0 -17 -177 -5 -232 15 -26 9 -48
21 -48 26 0 4 -4 6 -9 2 -17 -10 -95 53 -157 127 -67 81 -81 103 -121 198 -26
63 -27 74 -33 290 -3 142 -9 232 -17 245 -18 33 -71 96 -78 95 -4 -1 -20 10
-35 24 -16 14 -40 28 -54 32 l-25 6 20 49 c13 33 19 74 19 123 l0 74 59 -15
c48 -12 58 -18 54 -32 -5 -13 -3 -14 7 -4 15 14 55 -1 45 -17 -3 -5 11 -20 32
-33 21 -14 47 -34 57 -46 11 -11 23 -21 28 -21 30 0 122 -149 130 -210 2 -14
6 -30 10 -35 4 -6 9 -101 13 -210 6 -203 13 -252 45 -315 25 -49 57 -75 120
-99 52 -20 109 -30 65 -11 -12 5 2 6 36 3 36 -4 59 -2 63 6 4 6 16 11 26 11
10 0 23 6 27 13 4 7 20 18 35 24 16 7 40 36 61 75 l36 63 0 270 c0 149 3 326
5 394 5 120 5 124 36 162 17 21 43 42 58 45 15 4 29 10 32 14 9 13 100 -16
121 -39 11 -11 23 -21 27 -21 4 0 25 -17 47 -36 53 -48 166 -104 240 -119 92
-18 172 -11 275 25 39 13 60 19 68 21 4 0 13 6 21 12 7 6 21 16 31 22 94 55
153 122 206 233 24 52 44 97 44 100 0 4 -7 16 -16 27 -12 17 -31 21 -112 26
-133 9 -155 15 -285 79 -114 57 -247 169 -294 250 -15 25 -35 52 -45 61 -9 9
-15 18 -12 21 5 5 -25 78 -37 88 -3 3 -6 14 -7 25 -13 123 -13 137 1 168 9 18
26 40 38 50 26 22 129 36 129 18 0 -8 8 -10 23 -5 12 3 19 3 15 -1 -4 -4 6
-27 23 -50 22 -30 33 -60 40 -109 5 -37 19 -86 30 -109 23 -44 83 -110 92
-101 3 3 8 -4 12 -15 3 -12 12 -21 20 -21 7 0 15 -6 18 -14 7 -19 83 -52 133
-59 22 -3 49 -9 60 -12 12 -4 31 -2 43 5 17 8 21 8 19 -2 -4 -19 200 -14 216
5 6 8 37 25 68 37 31 13 54 28 51 33 -3 6 -1 7 4 4 21 -13 163 121 163 152 0
11 4 21 9 21 4 0 23 34 41 75 32 73 32 77 28 194 -4 109 -6 122 -31 160 -15
22 -27 45 -27 51 0 6 -5 8 -12 4 -7 -5 -9 -2 -5 9 4 11 -14 33 -59 74 -36 32
-71 60 -77 62 -17 6 -36 22 -84 69 -49 49 -54 78 -22 131 35 58 68 81 116 81
27 0 127 -44 148 -65 61 -61 68 -65 103 -48 44 21 78 96 103 228 16 87 20 158
10 184 -5 14 -17 53 -26 86 -48 168 -251 365 -375 365 -17 0 -30 5 -30 10 0
13 -95 13 -139 0 -74 -21 -254 30 -281 79 -13 25 -13 111 0 111 6 0 10 6 10
14 0 16 71 56 100 56 11 0 20 5 20 11 0 6 21 9 53 8 38 -1 61 4 87 19 19 12
32 22 27 22 -4 0 0 14 8 31 9 17 14 33 11 36 -3 3 -1 14 4 24 6 9 12 65 15
124 4 98 3 112 -24 190 -15 46 -42 104 -60 130 -17 25 -31 49 -31 52 0 3 -37
42 -82 87 -87 85 -140 122 -160 110 -6 -4 -8 -3 -5 3 7 11 -88 63 -114 63 -8
0 -19 4 -24 9 -6 6 -68 15 -140 21 -131 12 -145 17 -145 55 0 11 -9 45 -21 75
-37 100 -39 108 -21 114 33 10 307 -4 357 -18z m-1541 -1656 c96 -33 167 -79
257 -169 60 -61 95 -106 120 -155 21 -42 30 -70 23 -73 -6 -2 -87 -48 -180
-102 -93 -54 -254 -148 -359 -209 l-190 -110 -50 47 c-80 75 -161 130 -259
176 -110 53 -193 75 -287 78 -38 1 -64 5 -57 10 7 4 76 46 153 94 77 47 183
111 235 141 340 198 507 292 521 292 9 0 42 -9 73 -20z m404 -1593 c-7 -4 -76
-45 -153 -91 -438 -259 -560 -331 -563 -328 -1 1 -3 217 -3 480 l1 477 26 20
c24 19 176 109 426 253 65 37 153 87 195 112 l78 45 3 -480 c2 -381 0 -482
-10 -488z m-1995 393 c59 -30 61 -52 6 -74 -87 -35 -219 -31 -314 10 l-40 17
28 21 c57 43 107 56 192 53 59 -3 93 -10 128 -27z m882 -218 c64 -64 119 -152
157 -247 29 -73 32 -92 36 -217 l4 -137 -39 -10 c-82 -22 -158 -92 -208 -191
-10 -19 -19 -36 -20 -38 -2 -2 -25 4 -53 13 -65 22 -114 9 -185 -49 -45 -37
-98 -115 -118 -175 -4 -11 -11 -11 -36 3 -133 68 -302 -79 -349 -305 -12 -57
-13 -87 -4 -147 6 -41 9 -76 8 -77 -26 -16 -77 -45 -81 -45 -3 0 -11 26 -17
58 -6 31 -23 101 -36 155 l-25 98 46 51 c111 124 162 338 120 503 -21 78 -65
168 -116 234 -45 59 -43 64 20 76 75 14 161 96 161 154 0 45 11 53 251 187 96
53 217 123 269 154 l95 58 37 -29 c20 -16 57 -51 83 -77z m-1090 -74 c63 -10
180 -3 221 12 13 5 24 8 24 7 0 -1 -18 -49 -39 -107 l-39 -105 -99 -3 -100 -3
-31 104 c-37 120 -37 121 -14 112 9 -4 44 -12 77 -17z m-894 -45 c13 -17 13
-17 -6 -3 -11 8 -22 16 -24 17 -2 2 0 3 6 3 6 0 17 -8 24 -17z m737 -383 c292
-129 357 -539 107 -673 -32 -17 -57 -22 -125 -22 -76 0 -91 4 -146 32 -207
108 -283 395 -152 578 72 102 200 136 316 85z m1510 -330 c20 -30 23 -43 18
-85 -4 -27 -19 -75 -34 -105 -62 -125 -162 -102 -162 38 0 152 113 248 178
152z m-378 -195 c31 -33 38 -115 16 -182 -21 -65 -73 -116 -112 -111 -81 9
-87 207 -9 285 40 40 73 42 105 8z m-364 -216 c26 -29 32 -136 10 -193 -18
-46 -58 -90 -93 -100 -35 -11 -69 30 -78 92 -19 137 92 277 161 201z m-1059
-66 c90 -68 144 -86 275 -91 l118 -4 9 -37 c32 -122 52 -204 49 -206 -7 -5
-431 15 -513 24 -49 6 -96 11 -102 11 -7 0 -13 7 -13 15 0 16 121 325 127 325
1 0 24 -16 50 -37z m-92 -509 c105 -8 236 -18 293 -21 82 -5 101 -8 90 -18
-19 -18 -196 -125 -206 -125 -5 0 -69 29 -143 63 -74 35 -155 73 -181 83 -27
10 -48 22 -48 27 0 4 1 7 3 7 1 0 88 -7 192 -16z m-398 -155 c242 -108 333
-152 333 -159 0 -3 -19 -17 -42 -30 -24 -13 -62 -36 -85 -52 l-42 -28 -35 21
c-19 11 -130 62 -247 112 -116 51 -212 96 -213 101 -1 10 143 104 161 105 7 1
84 -31 170 -70z"/>
<path d="M6583 8035 c0 -22 2 -30 4 -17 2 12 2 30 0 40 -3 9 -5 -1 -4 -23z"/>
<path d="M5045 8026 c-53 -23 -85 -71 -85 -124 0 -75 36 -121 111 -142 66 -19
149 39 163 114 9 46 -22 116 -61 141 -35 23 -92 28 -128 11z"/>
<path d="M4345 7661 c-95 -48 -104 -173 -18 -241 24 -18 38 -21 87 -18 53 4
63 8 92 41 30 32 34 43 34 92 0 51 -3 60 -38 96 -47 51 -97 60 -157 30z"/>
<path d="M5746 7665 c-49 -17 -74 -42 -90 -90 -45 -130 117 -239 223 -149 16
13 35 41 41 60 38 114 -64 218 -174 179z"/>
<path d="M3683 7034 c-115 -57 -85 -236 43 -260 45 -8 113 25 138 68 71 119
-57 253 -181 192z"/>
<path d="M6415 7043 c-60 -16 -95 -67 -95 -139 0 -41 5 -51 39 -85 35 -35 44
-39 91 -39 87 0 143 51 142 130 -2 97 -81 157 -177 133z"/>
<path d="M3172 6333 c-73 -36 -101 -127 -60 -197 76 -129 258 -76 258 76 0 36
-6 54 -26 78 -50 59 -109 74 -172 43z"/>
<path d="M6945 6340 c-43 -18 -78 -67 -82 -117 -13 -153 170 -220 254 -94 75
111 -49 263 -172 211z"/>
<path d="M7288 6853 c6 -2 18 -2 25 0 6 3 1 5 -13 5 -14 0 -19 -2 -12 -5z"/>
<path d="M5257 4319 c7 -7 15 -10 18 -7 3 3 -2 9 -12 12 -14 6 -15 5 -6 -5z"/>
<path d="M5585 5774 c-11 -8 -84 -54 -162 -100 -79 -47 -154 -99 -168 -116
-24 -28 -25 -36 -25 -152 0 -188 23 -203 178 -111 50 30 125 73 167 96 115 63
117 68 113 225 -3 113 -6 135 -22 153 -22 25 -53 27 -81 5z"/>
<path d="M3315 4471 c-59 -25 -82 -106 -46 -164 25 -41 75 -67 114 -60 36 7
77 57 77 94 0 79 -85 155 -145 130z"/>
<path d="M3255 1756 c-28 -21 -12 -46 30 -46 31 0 35 -3 36 -27 5 -127 10
-167 21 -175 27 -17 33 1 33 100 l0 102 36 0 c44 0 68 22 49 45 -17 20 -178
21 -205 1z"/>
<path d="M3537 1763 c-4 -3 -7 -62 -7 -130 0 -101 3 -125 15 -129 26 -10 45
16 45 62 l0 44 45 0 45 0 0 -44 c0 -47 19 -72 45 -62 13 5 15 26 13 133 -3
120 -4 128 -23 128 -17 0 -20 -8 -23 -47 l-3 -48 -50 0 -49 0 0 38 c0 48 -30
79 -53 55z"/>
<path d="M3859 1731 c-38 -37 -44 -54 -40 -115 7 -133 196 -158 246 -33 19 48
19 63 -4 114 -23 49 -62 73 -122 73 -35 0 -48 -6 -80 -39z m132 -40 c34 -35
37 -68 8 -105 -51 -65 -154 5 -117 80 12 25 49 53 71 54 5 0 22 -13 38 -29z"/>
<path d="M4160 1760 c-23 -14 -20 -176 4 -211 37 -57 130 -64 174 -13 21 24
22 34 20 122 -3 92 -4 97 -25 100 -22 3 -23 1 -23 -81 0 -90 -13 -117 -57
-117 -38 0 -52 30 -55 119 -3 84 -10 99 -38 81z"/>
<path d="M4489 1755 c-57 -31 -78 -140 -38 -196 54 -76 173 -80 198 -8 24 70
3 119 -50 119 -60 0 -77 -50 -24 -70 31 -12 33 -36 4 -45 -49 -16 -109 57 -90
109 15 39 56 61 87 47 38 -17 64 -14 64 8 0 45 -94 67 -151 36z"/>
<path d="M4727 1763 c-4 -3 -7 -62 -7 -130 0 -105 2 -125 16 -130 24 -9 44 23
44 69 l0 38 45 0 45 0 0 -44 c0 -51 20 -76 45 -56 12 10 15 38 15 132 0 101
-2 120 -16 125 -23 9 -44 -23 -44 -67 0 -37 0 -37 -45 -38 l-45 -2 0 36 c0 56
-29 92 -53 67z"/>
<path d="M4991 1752 c-14 -26 4 -42 46 -42 l33 0 0 -94 c0 -71 4 -97 15 -106
12 -10 18 -10 30 0 11 9 15 35 15 106 l0 93 37 3 c28 2 39 8 41 22 6 29 -16
36 -115 36 -80 0 -94 -3 -102 -18z"/>
<path d="M5437 1764 c-9 -9 -9 -226 -1 -248 16 -41 63 -2 50 42 -3 9 -1 24 4
32 7 11 20 4 64 -38 59 -56 70 -61 80 -36 8 21 -4 41 -53 89 l-41 39 46 47
c31 31 45 53 41 63 -11 27 -34 18 -83 -34 -26 -27 -51 -50 -55 -50 -4 0 -9 21
-11 47 -2 34 -8 49 -18 51 -9 1 -19 0 -23 -4z"/>
<path d="M5738 1759 c-16 -9 -18 -26 -18 -124 0 -135 0 -135 109 -135 58 0 72
3 80 18 16 30 -1 41 -69 44 -57 3 -65 5 -65 23 0 17 8 20 50 23 54 4 69 16 54
43 -6 12 -24 19 -56 21 -36 2 -49 7 -51 20 -3 14 7 18 65 20 65 3 68 4 68 28
0 24 -2 25 -75 27 -41 2 -83 -2 -92 -8z"/>
<path d="M6012 1758 c-19 -19 -16 -222 4 -242 18 -18 163 -23 166 -6 4 33 1
35 -62 40 -61 5 -65 6 -65 30 0 23 4 25 53 28 53 3 60 10 46 46 -4 12 -20 16
-55 16 -42 0 -49 3 -49 20 0 17 8 19 68 22 64 3 67 4 67 28 0 24 -2 25 -80 28
-54 2 -84 -1 -93 -10z"/>
<path d="M6286 1749 c-17 -25 -23 -124 -7 -133 5 -3 7 -25 4 -48 -5 -53 8 -78
31 -59 8 7 16 27 18 44 3 30 5 32 50 35 38 2 52 9 73 33 31 38 32 80 2 114
-19 23 -33 28 -88 32 -61 5 -67 4 -83 -18z m115 -39 c22 -13 25 -52 5 -69 -8
-7 -27 -11 -43 -9 -24 3 -28 8 -31 37 -5 47 25 64 69 41z"/>
<path d="M6573 1760 c-22 -9 -23 -15 -23 -119 0 -137 3 -141 106 -141 57 0 76
3 80 15 12 29 -16 45 -78 45 -56 0 -59 1 -56 23 3 19 10 23 57 27 30 3 56 10
58 15 6 22 -17 38 -62 41 -55 4 -60 7 -52 29 5 11 22 15 71 15 50 0 65 4 70
16 12 31 -13 44 -83 43 -36 0 -76 -4 -88 -9z"/>
<path d="M6848 1760 c-16 -9 -18 -27 -18 -129 0 -99 3 -120 16 -125 25 -10 34
2 34 45 0 37 2 39 29 39 24 0 34 -8 52 -40 25 -44 45 -56 65 -39 19 16 18 26
-12 64 l-26 35 26 31 c30 35 28 60 -9 97 -17 18 -36 25 -81 28 -33 3 -67 0
-76 -6z m116 -56 c20 -20 20 -29 0 -49 -25 -25 -78 -16 -82 13 -7 46 48 71 82
36z"/>
</g>
</svg>
